<svg height="512" viewBox="0 0 32 32" width="512" xmlns="http://www.w3.org/2000/svg" id="fi_6421883"><g id="Layer_2" data-name="Layer 2"><path d="m26.94 5.06a4.96 4.96 0 0 0 -4.315-1.4l-6.718 1.06a4.971 4.971 0 0 0 -2.756 1.4l-8.979 8.98a4 4 0 0 0 0 5.656l7.071 7.071a4 4 0 0 0 5.656 0l8.98-8.979a4.971 4.971 0 0 0 1.4-2.756l1.06-6.718a4.95 4.95 0 0 0 -1.399-4.314zm-.572 4-1.061 6.717a2.975 2.975 0 0 1 -.842 1.654l-8.98 8.979a2.048 2.048 0 0 1 -2.828 0l-7.071-7.067a2 2 0 0 1 0-2.828l8.979-8.98a2.975 2.975 0 0 1 1.654-.842l6.717-1.061a3.125 3.125 0 0 1 .48-.038 3 3 0 0 1 2.952 3.47z"></path><path d="m17.606 10.151a3 3 0 1 0 4.244 0 3.072 3.072 0 0 0 -4.244 0zm2.829 2.828a1 1 0 0 1 -1.414-1.414 1 1 0 1 1 1.414 1.414z"></path></g></svg>